HIERARCHY
ROOT hip
{
  OFFSET 0 0 0
  CHANNELS 6 Xposition Yposition Zposition Zrotation Yrotation Xrotation
  JOINT abdomen
  {
    OFFSET 0 20.6881 -0.73152
    CHANNELS 3 Zrotation Xrotation Yrotation
    JOINT chest
    {
      OFFSET 0 11.7043 -0.48768
      CHANNELS 3 Zrotation Xrotation Yrotation
      JOINT neck
      {
        OFFSET 0 22.1894 -2.19456
        CHANNELS 3 Zrotation Xrotation Yrotation
        JOINT head
        {
          OFFSET -0.24384 7.07133 1.2192
          CHANNELS 3 Zrotation Xrotation Yrotation
          JOINT leftEye
          {
            OFFSET 4.14528 8.04674 8.04672
            CHANNELS 3 Zrotation Xrotation Yrotation
            End Site
            {
              OFFSET 1 0 0
            }
          }
          JOINT rightEye
          {
            OFFSET -3.6576 8.04674 8.04672
            CHANNELS 3 Zrotation Xrotation Yrotation
            End Site
            {
              OFFSET 1 0 0
            }
          }
        }
      }
      JOINT rCollar
      {
        OFFSET -2.68224 19.2634 -4.8768
        CHANNELS 3 Zrotation Xrotation Yrotation
        JOINT rShldr
        {
          OFFSET -8.77824 -1.95073 1.46304
          CHANNELS 3 Zrotation Xrotation Yrotation
          JOINT rForeArm
          {
            OFFSET -28.1742 -1.7115 0.48768
            CHANNELS 3 Zrotation Xrotation Yrotation
            JOINT rHand
            {
              OFFSET -22.5879 0.773209 7.07136
              CHANNELS 3 Zrotation Xrotation Yrotation
              JOINT rThumb1
              {
                OFFSET -1.2192 -0.487915 3.41376
                CHANNELS 3 Zrotation Xrotation Yrotation
                JOINT rThumb2
                {
                  OFFSET -3.37035 -0.52449 3.41376
                  CHANNELS 3 Zrotation Xrotation Yrotation
                  End Site
                  {
                    OFFSET -1.78271 -1.18214 1.43049
                  }
                }
              }
              JOINT rIndex1
              {
                OFFSET -7.75947 0.938293 5.60832
                CHANNELS 3 Zrotation Xrotation Yrotation
                JOINT rIndex2
                {
                  OFFSET -2.54057 -0.884171 1.56538
                  CHANNELS 3 Zrotation Xrotation Yrotation
                  End Site
                  {
                    OFFSET -1.62519 -0.234802 1.16502
                  }
                }
              }
              JOINT rMid1
              {
                OFFSET -8.24714 1.18213 3.41376
                CHANNELS 3 Zrotation Xrotation Yrotation
                JOINT rMid2
                {
                  OFFSET -3.10165 -0.590103 1.0647
                  CHANNELS 3 Zrotation Xrotation Yrotation
                  End Site
                  {
                    OFFSET -2.48547 -0.328903 0.83742
                  }
                }
              }
              JOINT rRing1
              {
                OFFSET -8.82822 0.546677 1.51678
                CHANNELS 3 Zrotation Xrotation Yrotation
                JOINT rRing2
                {
                  OFFSET -2.60934 -0.819778 -0.0198488
                  CHANNELS 3 Zrotation Xrotation Yrotation
                  End Site
                  {
                    OFFSET -2.33842 -0.294052 0.168128
                  }
                }
              }
              JOINT rPinky1
              {
                OFFSET -8.27202 -0.0477905 -0.4584
                CHANNELS 3 Zrotation Xrotation Yrotation
                JOINT rPinky2
                {
                  OFFSET -1.82734 -0.647385 -0.700984
                  CHANNELS 3 Zrotation Xrotation Yrotation
                  End Site
                  {
                    OFFSET -1.69225 -0.51767 -0.607171
                  }
                }
              }
            }
          }
        }
      }
      JOINT lCollar
      {
        OFFSET 2.68224 19.2634 -4.8768
        CHANNELS 3 Zrotation Xrotation Yrotation
        JOINT lShldr
        {
          OFFSET 8.77824 -1.95073 1.46304
          CHANNELS 3 Zrotation Xrotation Yrotation
          JOINT lForeArm
          {
            OFFSET 28.1742 -1.7115 0.48768
            CHANNELS 3 Zrotation Xrotation Yrotation
            JOINT lHand
            {
              OFFSET 22.5879 0.773209 7.07136
              CHANNELS 3 Zrotation Xrotation Yrotation
              JOINT lThumb1
              {
                OFFSET 1.2192 -0.487915 3.41376
                CHANNELS 3 Zrotation Xrotation Yrotation
                JOINT lThumb2
                {
                  OFFSET 3.37035 -0.52449 3.41376
                  CHANNELS 3 Zrotation Xrotation Yrotation
                  End Site
                  {
                    OFFSET 1.78271 -1.18214 1.43049
                  }
                }
              }
              JOINT lIndex1
              {
                OFFSET 7.75947 0.938293 5.60832
                CHANNELS 3 Zrotation Xrotation Yrotation
                JOINT lIndex2
                {
                  OFFSET 2.54057 -0.884171 1.56538
                  CHANNELS 3 Zrotation Xrotation Yrotation
                  End Site
                  {
                    OFFSET 1.62519 -0.234802 1.16502
                  }
                }
              }
              JOINT lMid1
              {
                OFFSET 8.24714 1.18213 3.41376
                CHANNELS 3 Zrotation Xrotation Yrotation
                JOINT lMid2
                {
                  OFFSET 3.10165 -0.590103 1.0647
                  CHANNELS 3 Zrotation Xrotation Yrotation
                  End Site
                  {
                    OFFSET 2.48547 -0.328903 0.83742
                  }
                }
              }
              JOINT lRing1
              {
                OFFSET 8.82822 0.546677 1.51678
                CHANNELS 3 Zrotation Xrotation Yrotation
                JOINT lRing2
                {
                  OFFSET 2.60934 -0.819778 -0.0198488
                  CHANNELS 3 Zrotation Xrotation Yrotation
                  End Site
                  {
                    OFFSET 2.33842 -0.294052 0.168128
                  }
                }
              }
              JOINT lPinky1
              {
                OFFSET 8.27202 -0.0477905 -0.4584
                CHANNELS 3 Zrotation Xrotation Yrotation
                JOINT lPinky2
                {
                  OFFSET 1.82734 -0.647385 -0.700984
                  CHANNELS 3 Zrotation Xrotation Yrotation
                  End Site
                  {
                    OFFSET 1.69225 -0.51767 -0.607171
                  }
                }
              }
            }
          }
        }
      }
    }
  }
  JOINT rButtock
  {
    OFFSET -8.77824 4.35084 1.2192
    CHANNELS 3 Zrotation Xrotation Yrotation
    JOINT rThigh
    {
      OFFSET 0 -1.70687 -2.19456
      CHANNELS 3 Zrotation Xrotation Yrotation
      JOINT rShin
      {
        OFFSET 0 -36.8199 0.73152
        CHANNELS 3 Zrotation Xrotation Yrotation
        JOINT rFoot
        {
          OFFSET 0.73152 -45.1104 -5.12064
          CHANNELS 3 Zrotation Xrotation Yrotation
          End Site
          {
            OFFSET -1.1221 -3.69964 12.103
          }
        }
      }
    }
  }
  JOINT lButtock
  {
    OFFSET 8.77824 4.35084 1.2192
    CHANNELS 3 Zrotation Xrotation Yrotation
    JOINT lThigh
    {
      OFFSET 0 -1.70687 -2.19456
      CHANNELS 3 Zrotation Xrotation Yrotation
      JOINT lShin
      {
        OFFSET 0 -36.8199 0.73152
        CHANNELS 3 Zrotation Xrotation Yrotation
        JOINT lFoot
        {
          OFFSET -0.73152 -45.1104 -5.12064
          CHANNELS 3 Zrotation Xrotation Yrotation
          End Site
          {
            OFFSET 1.1221 -3.69964 12.103
          }
        }
      }
    }
  }
}
MOTION
Frames:	9
Frame Time:	0.00833333
48.4113 81.1049 17.1535 -3.3028 -6.8851 8.4676 0.110775 -4.95541 10.7478 5.42959 1.22813 2.9429 -13.8125 -3.88605 -6.46417 22.6313 -3.09199 -7.51224 -0.0 0.0 0.0 -0.0 0.0 0.0 1.12266e-13 -1.1225e-13 2.69125e-13 54.0131 45.78 24.4932 -17.5601 -10.2215 33.0407 -0.342816 -16.4199 -2.37375 -2.17658e-09 3.19665e-09 5.56053e-11 -3.75921e-09 5.56118e-09 6.91438e-11 -2.17658e-09 3.19665e-09 5.56032e-11 7.73091 5.47488 0.417314 -2.17658e-09 3.19666e-09 5.56079e-11 2.90554 0.965183 0.102902 -2.17657e-09 3.19666e-09 5.56101e-11 10.2786 0.731801 0.0259123 -2.17658e-09 3.19666e-09 5.5618e-11 2.22167 -0.733487 -0.20892 1.1213e-13 -1.12253e-13 2.68982e-13 -76.8495 1.21277 27.7355 3.29545 -0.970426 -5.70439 2.04905 37.0986 -6.10123 -6.64003e-10 -1.02126e-11 9.79465e-10 -1.10764e-09 -4.22666e-11 1.71183e-09 -6.64008e-10 -1.02105e-11 9.79481e-10 -7.73091 5.47488 -0.417314 -6.64003e-10 -1.02162e-11 9.79465e-10 -2.90554 0.965183 -0.102902 -6.64009e-10 -1.02142e-11 9.7947e-10 -10.2786 0.731801 -0.0259123 -6.63997e-10 -1.02129e-11 9.79463e-10 -2.22167 -0.733487 0.20892 -2.03217e-16 0.0 -3.88251e-19 1.86954 6.92296 -1.66395 -0.139259 31.3516 0.774984 -0.930383 16.6819 1.1285 2.03217e-16 0.0 3.88251e-19 9.43454 -51.1206 9.57163 0.394333 41.5388 -0.616302 0.470245 2.84712 4.98153
48.7958 81.1695 18.4937 -2.4177 -6.9124 8.151 -1.2416 -4.76342 10.5371 5.54674 1.17414 2.88467 -13.8358 -3.87544 -6.4433 22.7581 -3.1564 -7.45018 -0.0 0.0 0.0 -0.0 0.0 0.0 1.2661e-13 -1.85267e-13 2.71192e-13 54.8001 45.8811 23.7097 -17.5054 -10.1647 32.92 -0.344746 -16.4713 -2.38153 -2.27427e-09 3.30899e-09 7.96443e-11 -3.92688e-09 5.75553e-09 1.08978e-10 -2.27428e-09 3.30899e-09 7.96443e-11 7.73091 5.47488 0.417314 -2.27428e-09 3.309e-09 7.96474e-11 2.90554 0.965183 0.102902 -2.27427e-09 3.309e-09 7.96498e-11 10.2786 0.731801 0.0259123 -2.27427e-09 3.309e-09 7.9657e-11 2.22167 -0.733487 -0.20892 1.26451e-13 -1.85269e-13 2.71043e-13 -76.5071 0.569233 27.3767 3.55429 -1.06206 -6.15734 2.06142 37.1911 -6.12177 -3.76859e-10 -2.19646e-10 9.22113e-10 -6.13514e-10 -3.98135e-10 1.60569e-09 -3.76864e-10 -2.19643e-10 9.22129e-10 -7.73091 5.47488 -0.417314 -3.76859e-10 -2.19648e-10 9.2211e-10 -2.90554 0.965183 -0.102902 -3.76866e-10 -2.19645e-10 9.22117e-10 -10.2786 0.731801 -0.0259123 -3.76853e-10 -2.19644e-10 9.2211e-10 -2.22167 -0.733487 0.20892 -2.03217e-16 0.0 -3.88251e-19 0.451942 4.75216 -2.46634 -0.226632 35.5815 0.748915 -0.744251 18.4203 -0.0484459 2.03217e-16 0.0 3.88251e-19 7.95061 -50.5481 9.52221 0.417227 42.1456 -0.546513 0.51968 1.55876 4.43463
49.1988 81.2597 19.7425 -1.4119 -7.0187 7.9966 -3.00749 -4.59668 10.4282 5.66187 1.22386 2.84752 -13.7724 -3.89381 -6.41331 22.7675 -3.27779 -7.38501 -0.0 0.0 0.0 -0.0 0.0 0.0 1.056e-13 -1.5412e-13 1.73598e-13 55.9649 45.5801 22.7418 -17.4553 -10.1128 32.8095 -0.321893 -15.9731 -2.30508 -1.88475e-09 2.65225e-09 1.63779e-10 -3.25599e-09 4.61598e-09 2.59921e-10 -1.88475e-09 2.65225e-09 1.63778e-10 7.73091 5.47488 0.417314 -1.88475e-09 2.65226e-09 1.63782e-10 2.90554 0.965183 0.102902 -1.88474e-09 2.65226e-09 1.63782e-10 10.2786 0.731801 0.0259123 -1.88475e-09 2.65226e-09 1.63788e-10 2.22167 -0.733487 -0.20892 1.05452e-13 -1.54121e-13 1.73442e-13 -76.0657 -0.297437 26.8235 3.8399 -1.16748 -6.65667 2.04842 37.0917 -6.09987 -3.74046e-10 -7.50579e-11 5.90376e-10 -6.20961e-10 -1.43449e-10 1.03298e-09 -3.74049e-10 -7.50552e-11 5.90392e-10 -7.73091 5.47488 -0.417314 -3.74046e-10 -7.50592e-11 5.90373e-10 -2.90554 0.965183 -0.102902 -3.74053e-10 -7.50569e-11 5.90379e-10 -10.2786 0.731801 -0.0259123 -3.7404e-10 -7.50563e-11 5.90371e-10 -2.22167 -0.733487 0.20892 -2.03217e-16 0.0 -3.88251e-19 -1.31263 2.48437 -2.80825 -0.342098 39.9037 0.736636 -0.359761 19.3733 -2.09471 2.03217e-16 0.0 3.88251e-19 6.10567 -49.7539 9.44817 0.434047 42.3862 -0.447592 0.535223 0.555258 4.10012
49.655 81.3815 20.9783 0.0702 -7.1572 7.8943 -5.07823 -4.43518 10.3743 5.77332 1.35533 2.82052 -13.6462 -3.93639 -6.36791 22.6939 -3.45672 -7.29632 -0.0 0.0 0.0 -0.0 0.0 0.0 6.04978e-14 -5.93376e-14 8.32099e-15 57.3467 44.9979 21.6898 -17.4037 -10.0595 32.696 -0.285568 -15.1025 -2.17289 -1.15189e-09 1.45341e-09 2.87853e-10 -1.99391e-09 2.53588e-09 4.84867e-10 -1.15189e-09 1.45341e-09 2.87847e-10 7.73091 5.47488 0.417314 -1.15189e-09 1.45341e-09 2.87853e-10 2.90554 0.965183 0.102902 -1.15189e-09 1.45341e-09 2.87851e-10 10.2786 0.731801 0.0259123 -1.15189e-09 1.45342e-09 2.87856e-10 2.22167 -0.733487 -0.20892 6.03797e-14 -5.93375e-14 8.15637e-15 -75.5776 -1.34314 26.118 4.15993 -1.28819 -7.21831 2.01574 36.8417 -6.04487 -5.18124e-10 2.75475e-10 6.8119e-11 -8.89477e-10 4.67161e-10 1.34983e-10 -5.18126e-10 2.75476e-10 6.81339e-11 -7.73091 5.47488 -0.417314 -5.18124e-10 2.75474e-10 6.81168e-11 -2.90554 0.965183 -0.102902 -5.18131e-10 2.75475e-10 6.81193e-11 -10.2786 0.731801 -0.0259123 -5.18117e-10 2.75475e-10 6.81108e-11 -2.22167 -0.733487 0.20892 -2.03217e-16 0.0 -3.88251e-19 -3.31444 0.0896395 -2.86185 -0.481117 44.3535 0.731127 0.154266 19.723 -4.7584 2.03217e-16 0.0 3.88251e-19 3.97957 -48.7641 9.34152 0.448341 42.3196 -0.328669 0.541741 -0.380403 3.89189
50.0886 81.5532 22.2133 1.1308 -7.222 7.682 -7.01399 -4.29961 10.2948 5.83666 1.5096 2.7849 -13.5211 -3.96262 -6.30914 22.6123 -3.6472 -7.18189 -0.0 0.0 0.0 -0.0 0.0 0.0 1.39473e-14 3.72836e-14 -1.53525e-13 58.7509 44.3789 20.6414 -17.3472 -10.0015 32.5719 -0.253894 -14.2423 -2.04392 -4.06629e-10 2.2455e-10 4.06524e-10 -7.10271e-10 4.03366e-10 7.00604e-10 -4.06622e-10 2.24551e-10 4.06514e-10 7.73091 5.47488 0.417314 -4.06631e-10 2.24553e-10 4.06522e-10 2.90554 0.965183 0.102902 -4.06627e-10 2.24554e-10 4.06518e-10 10.2786 0.731801 0.0259123 -4.06631e-10 2.24555e-10 4.06521e-10 2.22167 -0.733487 -0.20892 1.38663e-14 3.72852e-14 -1.53703e-13 -75.2199 -2.25098 25.3069 4.46136 -1.40331 -7.75034 1.96512 36.4547 -5.95997 -6.44227e-10 6.22346e-10 -4.72314e-10 -1.12733e-09 1.07158e-09 -7.94914e-10 -6.44227e-10 6.22346e-10 -4.723e-10 -7.73091 5.47488 -0.417314 -6.44226e-10 6.22346e-10 -4.72315e-10 -2.90554 0.965183 -0.102902 -6.44233e-10 6.22346e-10 -4.72316e-10 -10.2786 0.731801 -0.0259123 -6.44219e-10 6.22346e-10 -4.72325e-10 -2.22167 -0.733487 0.20892 -2.03217e-16 0.0 -3.88251e-19 -5.16924 -2.34811 -2.86379 -0.625367 48.6269 0.743831 0.628913 19.6049 -7.39149 2.03217e-16 0.0 3.88251e-19 1.94472 -47.6979 9.2384 0.459838 42.0976 -0.21345 0.546356 -1.27109 3.73339
50.5002 81.6965 23.4769 2.3047 -7.3777 7.4676 -8.37435 -4.21049 10.1097 5.80752 1.62774 2.72185 -13.4613 -3.93195 -6.23904 22.5974 -3.80318 -7.03946 -0.0 0.0 0.0 -0.0 0.0 0.0 -1.14053e-14 7.39467e-14 -2.40828e-13 60.0116 43.9736 19.6602 -17.2824 -9.93536 32.4294 -0.238558 -13.7758 -1.97464 2.00916e-11 -5.22238e-10 4.74453e-10 2.53168e-11 -8.93434e-10 8.23921e-10 2.01019e-11 -5.22239e-10 4.7444e-10 7.73091 5.47488 0.417314 2.00913e-11 -5.22238e-10 4.7445e-10 2.90554 0.965183 0.102902 2.00926e-11 -5.22238e-10 4.74444e-10 10.2786 0.731801 0.0259123 2.00882e-11 -5.22237e-10 4.74447e-10 2.22167 -0.733487 -0.20892 -1.14557e-14 7.39491e-14 -2.41026e-13 -75.1483 -2.69354 24.4287 4.6926 -1.49228 -8.16082 1.89867 35.9444 -5.84862 -5.87487e-10 7.55951e-10 -8.58578e-10 -1.04278e-09 1.30768e-09 -1.4633e-09 -5.87486e-10 7.5595e-10 -8.58565e-10 -7.73091 5.47488 -0.417314 -5.87486e-10 7.55951e-10 -8.58578e-10 -2.90554 0.965183 -0.102902 -5.87493e-10 7.55951e-10 -8.58581e-10 -10.2786 0.731801 -0.0259123 -5.87479e-10 7.55951e-10 -8.58591e-10 -2.22167 -0.733487 0.20892 -2.03217e-16 0.0 -3.88251e-19 -6.53139 -4.7431 -3.04949 -0.761266 52.4202 0.788918 0.914676 19.1916 -9.35359 2.03217e-16 0.0 3.88251e-19 0.368728 -46.6751 9.17002 0.466368 41.8718 -0.124361 0.55073 -2.14008 3.54825
50.9075 82.1475 24.7215 3.2423 -7.3581 7.3378 -8.98198 -4.18919 9.78112 5.64856 1.69151 2.62163 -13.5138 -3.80046 -6.1531 22.7107 -3.93117 -6.85028 -0.0 0.0 0.0 -0.0 0.0 0.0 -2.36306e-15 8.20511e-15 -2.07693e-13 61.1175 43.8816 18.7565 -17.2021 -9.85411 32.2532 -0.242451 -13.8807 -1.99034 -7.25508e-11 -5.19688e-10 4.69802e-10 -1.32692e-10 -8.91367e-10 8.1413e-10 -7.25384e-11 -5.19691e-10 4.6979e-10 7.73091 5.47488 0.417314 -7.25502e-11 -5.19691e-10 4.69799e-10 2.90554 0.965183 0.102902 -7.25492e-11 -5.19691e-10 4.69794e-10 10.2786 0.731801 0.0259123 -7.25556e-11 -5.1969e-10 4.69797e-10 2.22167 -0.733487 -0.20892 -2.38853e-15 8.20731e-15 -2.0793e-13 -75.4312 -2.45094 23.4997 4.8281 -1.5451 -8.40187 1.81109 35.2527 -5.69992 -2.19484e-10 5.38682e-10 -1.03611e-09 -4.11125e-10 9.38762e-10 -1.77918e-09 -2.19484e-10 5.38681e-10 -1.0361e-09 -7.73091 5.47488 -0.417314 -2.19483e-10 5.38683e-10 -1.03611e-09 -2.90554 0.965183 -0.102902 -2.1949e-10 5.38683e-10 -1.03611e-09 -10.2786 0.731801 -0.0259123 -2.19476e-10 5.38683e-10 -1.03612e-09 -2.22167 -0.733487 0.20892 -2.03217e-16 0.0 -3.88251e-19 -7.30738 -7.09643 -3.54698 -0.900534 55.6661 0.886738 0.930571 18.4296 -10.4111 2.03217e-16 0.0 3.88251e-19 -0.603632 -45.7154 9.1839 0.465687 41.6521 -0.0675587 0.552295 -2.99126 3.31235
51.007 82.3701 25.8524 3.1488 -7.1368 7.4516 -9.09244 -4.21943 9.35728 5.39196 1.73316 2.49581 -13.635 -3.60075 -6.052 22.8987 -4.04946 -6.62156 -0.0 0.0 0.0 -0.0 0.0 0.0 2.66103e-14 -1.18327e-13 -1.01026e-13 62.167 43.9628 17.8827 -17.11 -9.76127 32.0518 -0.258309 -14.3276 -2.05704 -4.70531e-10 -8.44845e-11 4.20001e-10 -8.15952e-10 -1.39544e-10 7.21777e-10 -4.70518e-10 -8.44897e-11 4.19991e-10 7.73091 5.47488 0.417314 -4.7053e-10 -8.44888e-11 4.19999e-10 2.90554 0.965183 0.102902 -4.70529e-10 -8.44891e-11 4.19998e-10 10.2786 0.731801 0.0259123 -4.70538e-10 -8.44877e-11 4.2e-10 2.22167 -0.733487 -0.20892 2.66098e-14 -1.18326e-13 -1.01312e-13 -75.9405 -1.72544 22.4973 4.90064 -1.57451 -8.53027 1.70774 34.3926 -5.51942 3.43701e-10 1.09565e-10 -1.09969e-09 5.63068e-10 2.04662e-10 -1.90329e-09 3.43698e-10 1.09566e-10 -1.09968e-09 -7.73091 5.47488 -0.417314 3.43703e-10 1.09569e-10 -1.09969e-09 -2.90554 0.965183 -0.102902 3.43694e-10 1.09569e-10 -1.0997e-09 -10.2786 0.731801 -0.0259123 3.43708e-10 1.0957e-10 -1.0997e-09 -2.22167 -0.733487 0.20892 -2.03217e-16 0.0 -3.88251e-19 -7.71477 -9.44299 -4.21479 -1.0622 58.5219 1.03697 0.739701 17.2858 -10.9208 2.03217e-16 0.0 3.88251e-19 -1.1896 -44.7595 9.24616 0.459612 41.3677 -0.0310932 0.551179 -3.8129 3.06725
51.1248 82.5428 26.9624 3.0219 -6.7819 7.7071 -8.91416 -4.26511 8.88672 5.09764 1.76955 2.35766 -13.7529 -3.40704 -5.94557 23.0631 -4.12959 -6.38996 -0.0 0.0 0.0 -0.0 0.0 0.0 5.66692e-14 -2.41356e-13 1.10923e-14 63.172 44.1096 17.0044 -17.0188 -9.66969 31.8537 -0.279519 -14.889 -2.14133 -8.82513e-10 4.1953e-10 3.53611e-10 -1.52326e-09 7.3178e-10 6.00499e-10 -8.825e-10 4.19524e-10 3.53604e-10 7.73091 5.47488 0.417314 -8.82512e-10 4.19525e-10 3.53611e-10 2.90554 0.965183 0.102902 -8.82509e-10 4.19524e-10 3.53612e-10 10.2786 0.731801 0.0259123 -8.82522e-10 4.19526e-10 3.53615e-10 2.22167 -0.733487 -0.20892 5.66876e-14 -2.41355e-13 1.07631e-14 -76.5323 -0.820491 21.3981 4.94665 -1.59407 -8.61101 1.60457 33.4841 -5.33359 9.00182e-10 -3.26052e-10 -1.101e-09 1.52765e-09 -5.41893e-10 -1.91982e-09 9.00177e-10 -3.26049e-10 -1.101e-09 -7.73091 5.47488 -0.417314 9.00185e-10 -3.26047e-10 -1.10101e-09 -2.90554 0.965183 -0.102902 9.00174e-10 -3.26046e-10 -1.10101e-09 -10.2786 0.731801 -0.0259123 9.00189e-10 -3.26044e-10 -1.10102e-09 -2.22167 -0.733487 0.20892 -2.03217e-16 0.0 -3.88251e-19 -7.8815 -11.7477 -4.88333 -1.23923 61.0204 1.21895 0.457485 15.9752 -11.1442 2.03217e-16 0.0 3.88251e-19 -1.56123 -43.8075 9.26723 0.450449 41.0501 -0.00914327 0.550332 -4.60508 2.83519
